<?xml version="1.0" encoding="UTF-8"?>
<svg version="1.1" xmlns="http://www.w3.org/2000/svg" width="692" height="323">
<path d="M0 0 C37.62 0 75.24 0 114 0 C118.62 8.91 123.24 17.82 128 27 C132.41437282 35.13229617 132.41437282 35.13229617 136.85546875 43.25 C140.53317376 49.95438404 144.14280495 56.69502815 147.75 63.4375 C148.070896 64.03718597 148.39179199 64.63687195 148.72241211 65.25473022 C150.81659779 69.16893595 152.90875254 73.08422383 155 77 C155.47614746 77.89154785 155.95229492 78.7830957 156.44287109 79.70166016 C158.63094938 83.79984698 160.81703169 87.89908828 163 92 C169.97568784 79.85548628 176.88029537 67.67345371 183.71313477 55.44799805 C189.77151896 44.61074843 195.88487413 33.80536804 202 23 C206.29 15.41 210.58 7.82 215 0 C244.04 0 273.08 0 303 0 C300.14468588 2.85531412 297.40931321 4.82723445 294.0625 7.0625 C282.4513858 14.56982643 282.4513858 14.56982643 273.41137695 24.60327148 C270.34095952 27.65503699 268.64034274 27.61608245 264.44818115 27.71894836 C263.59387512 27.71501572 262.73956909 27.71108307 261.859375 27.70703125 C260.97719299 27.72215256 260.09501099 27.73727386 259.18609619 27.75285339 C256.37380503 27.79577476 253.56258625 27.80457248 250.75 27.8125 C248.84111723 27.83564092 246.93226004 27.86100541 245.0234375 27.88867188 C240.34886335 27.95156794 235.67496001 27.98386854 231 28 C230.67427002 28.60658447 230.34854004 29.21316895 230.01293945 29.83813477 C222.3951987 44.00662764 214.61333509 58.06821704 206.66796875 72.05517578 C203.78131597 77.15160521 200.92199777 82.26329975 198.0625 87.375 C197.19165771 88.93118042 197.19165771 88.93118042 196.30322266 90.51879883 C194.53508777 93.67897902 192.76745666 96.83944044 191 100 C186.92292932 107.29060295 182.84214473 114.5790893 178.75537109 121.86425781 C176.93143644 125.12247989 175.115916 128.38530613 173.30078125 131.6484375 C172.11737996 133.76573258 170.93379311 135.88292396 169.75 138 C169.20077881 138.99209473 168.65155762 139.98418945 168.08569336 141.00634766 C167.5778833 141.91175293 167.07007324 142.8171582 166.546875 143.75 C166.10182617 144.54921875 165.65677734 145.3484375 165.19824219 146.171875 C164 148 164 148 162 149 C161.54786133 148.14583496 161.09572266 147.29166992 160.62988281 146.41162109 C149.94988501 126.21257402 149.94988501 126.21257402 139.0625 106.125 C133.94202029 96.80213361 128.96500871 87.40620445 124 78 C117.10626244 64.94051073 110.11221764 51.94208089 103 39 C101.02 35.37 99.04 31.74 97 28 C80.17 28 63.34 28 46 28 C51.78474045 39.15628515 57.5721995 50.29937108 63.625 61.3125 C68.78158564 70.70099445 73.8103227 80.15370194 78.8125 89.625 C86.81817926 104.78088722 94.89179151 119.89865224 103 135 C105.45940867 139.58275724 107.91768794 144.16611821 110.375 148.75 C110.98666016 149.89082031 111.59832031 151.03164062 112.22851562 152.20703125 C116.70411119 160.56209727 121.15083093 168.93222387 125.59066772 177.30633545 C130.69858976 186.94005748 135.82114701 196.56293808 141.0625 206.125 C145.62719379 214.45912793 150.15414234 222.81300936 154.64352417 231.18792725 C155.37749685 232.55578818 156.1129361 233.92286325 156.84988403 235.28912354 C157.87790669 237.1958298 158.90056271 239.10531799 159.921875 241.015625 C160.51581055 242.12196289 161.10974609 243.22830078 161.72167969 244.36816406 C163 247 163 247 163 249 C163.66 249 164.32 249 165 249 C165.27150879 248.1234375 165.54301758 247.246875 165.82275391 246.34375 C166.9347803 243.1852445 168.23735355 240.43632189 169.8359375 237.5 C170.39925781 236.45972656 170.96257812 235.41945312 171.54296875 234.34765625 C172.14753906 233.24292969 172.75210938 232.13820312 173.375 231 C174.00277344 229.84371094 174.63054687 228.68742188 175.27734375 227.49609375 C177.17888985 223.99410074 179.08904 220.49686499 181 217 C182.03399259 215.10424216 183.06785703 213.20841441 184.1015625 211.3125 C185.55362686 208.65034152 187.00627914 205.98851221 188.46069336 203.32763672 C192.9147189 195.17453011 197.31879109 186.99487973 201.71875 178.8125 C206.16390373 170.54744493 210.62935823 162.29359283 215.10302734 154.04394531 C219.1042158 146.66217079 223.08594702 139.27006974 227.0625 131.875 C231.8048054 123.05661513 236.57970457 114.25704397 241.38867188 105.47485352 C244.1860592 100.35631836 246.95495201 95.22349962 249.6953125 90.07421875 C271.44560232 49.20616131 271.44560232 49.20616131 280 40 C280.86189941 39.06075684 280.86189941 39.06075684 281.74121094 38.10253906 C298.77882302 19.71340594 319.04388985 6.66490168 344 2 C344.88903298 1.83169741 345.77806597 1.66339481 346.69403934 1.48999214 C359.49020749 -0.55648369 372.33148113 -0.27209068 385.25845134 -0.23213124 C388.80627762 -0.22340484 392.35409776 -0.22642333 395.90193176 -0.22793579 C402.03222858 -0.22897889 408.16248246 -0.22276283 414.29276848 -0.21146011 C423.15586695 -0.19512951 432.0189449 -0.18998942 440.88205678 -0.18748413 C455.26570258 -0.18311882 469.64932556 -0.16984148 484.03295898 -0.15087891 C497.99617398 -0.13248986 511.95938275 -0.1183482 525.92260742 -0.10986328 C526.78489529 -0.10933783 527.64718315 -0.10881239 528.53560095 -0.10827102 C532.86192206 -0.10566073 537.18824321 -0.10313337 541.51456439 -0.10064721 C577.34305919 -0.079951 613.17152748 -0.04475739 649 0 C647.71642313 2.57126528 646.43240494 5.14230857 645.14813232 7.71322632 C644.60557706 8.80024542 644.60557706 8.80024542 644.05206108 9.90922451 C641.65363381 14.70940126 639.22207117 19.48832565 636.703125 24.2265625 C636.34754517 24.89879852 635.99196533 25.57103455 635.62561035 26.26364136 C634.50247188 28.38519662 633.37645151 30.50520224 632.25 32.625 C631.85848755 33.36322998 631.4669751 34.10145996 631.06359863 34.86206055 C624.47024891 47.29424052 617.75926806 59.65698876 611 72 C604.07 84.87 604.07 84.87 597 98 C560.37 98 523.74 98 486 98 C485.34 99.98 484.68 101.96 484 104 C483.09561983 105.86034351 482.14481433 107.69861591 481.15625 109.515625 C480.57875 110.58425781 480.00125 111.65289062 479.40625 112.75390625 C478.7771875 113.90761719 478.148125 115.06132812 477.5 116.25 C476.13323689 118.77486525 474.76996074 121.30161015 473.40625 123.828125 C473.04934082 124.48824585 472.69243164 125.1483667 472.32470703 125.82849121 C468.55322024 132.81010187 464.84463742 139.82461396 461.13964844 146.8416748 C455.29377989 157.91288323 449.42265156 168.96963846 443.5 180 C436.84794869 192.39076117 430.26300024 204.81623179 423.68840027 217.24819946 C423.12141167 218.32030167 423.12141167 218.32030167 422.54296875 219.4140625 C422.16477493 220.12920013 421.78658112 220.84433777 421.39692688 221.58114624 C415.68415464 232.38114396 409.94666321 243.16802244 404.21165466 253.95622253 C401.98455937 258.14610609 399.75935566 262.33698908 397.53544617 266.52856445 C395.99790094 269.42649069 394.45990706 272.32417872 392.92190552 275.22186279 C392.19583691 276.59011455 391.46997818 277.9584777 390.74435425 279.32696533 C389.73249341 281.23521244 388.71983572 283.14303484 387.70703125 285.05078125 C386.84815308 286.66980347 386.84815308 286.66980347 385.97192383 288.3215332 C383.34129943 293.22875344 380.66617862 298.11200585 378 303 C340.05 303 302.1 303 263 303 C267.77113657 293.45772685 272.53524609 283.98822654 277.625 274.625 C278.84642022 272.36722323 280.06777244 270.10940968 281.2890625 267.8515625 C281.90426758 266.7162207 282.51947266 265.58087891 283.15332031 264.41113281 C286.11196812 258.94600495 289.05539076 253.47270036 292 248 C293.16400437 245.83851036 294.328067 243.67705209 295.4921875 241.515625 C297.85319524 237.13108467 300.21237893 232.74556928 302.5703125 228.359375 C307.99805915 218.26577514 313.43748303 208.17942995 318.9375 198.125 C324.43417586 188.07414596 329.84593773 177.978457 335.2489624 167.8770752 C335.56512512 167.28599976 335.88128784 166.69492432 336.20703125 166.0859375 C336.5233551 165.49453979 336.83967896 164.90314209 337.16558838 164.29382324 C342.16396701 154.95196199 347.19552177 145.62793783 352.22216797 136.30126953 C353.77520083 133.41743124 355.32650645 130.53267871 356.87663269 127.64727783 C357.8386206 125.85666244 358.80097459 124.06624427 359.76342773 122.27587891 C360.97067783 120.02983958 362.17726167 117.78344195 363.38305664 115.53662109 C363.92953857 114.52035645 364.47602051 113.5040918 365.0390625 112.45703125 C365.51553223 111.56991455 365.99200195 110.68279785 366.48291016 109.76879883 C368.27990723 106.48914904 370.14459285 103.24696251 372 100 C346.59 99.67 321.18 99.34 295 99 C296.44019629 94.67941114 297.51651163 91.80990268 299.78515625 88.07421875 C300.31560547 87.19572266 300.84605469 86.31722656 301.39257812 85.41210938 C301.94365234 84.51298828 302.49472656 83.61386719 303.0625 82.6875 C303.89491211 81.30981445 303.89491211 81.30981445 304.74414062 79.90429688 C308.83129699 73.16870301 308.83129699 73.16870301 310 72 C311.40411317 71.9045307 312.81299809 71.87811471 314.22035217 71.87974548 C315.13045547 71.87837082 316.04055878 71.87699615 316.97824097 71.87557983 C317.98452545 71.87917511 318.99080994 71.88277039 320.02758789 71.88647461 C321.08111954 71.88632858 322.13465118 71.88618256 323.22010803 71.8860321 C326.720978 71.88673174 330.22179552 71.89452652 333.72265625 71.90234375 C336.14261343 71.90420775 338.56257099 71.90563174 340.98252869 71.90663147 C347.36615024 71.91045808 353.74974921 71.92028959 360.13336182 71.93133545 C366.64163914 71.94154649 373.1499201 71.94612843 379.65820312 71.95117188 C392.43881175 71.96191173 405.21940467 71.97879888 418 72 C416.7292165 74.54559816 415.45799422 77.09097562 414.18652344 79.63623047 C413.65168839 80.70776619 413.65168839 80.70776619 413.10604858 81.8009491 C410.20678816 87.60341762 407.25522674 93.37662717 404.25 99.125 C403.74251221 100.09671143 403.23502441 101.06842285 402.7121582 102.06958008 C398.78961575 109.5523515 394.76984448 116.97861913 390.70751953 124.38623047 C386.63480613 131.81680097 382.6207118 139.27778381 378.625 146.75 C377.34771148 149.13805038 376.07036435 151.5260694 374.79296875 153.9140625 C374.47663483 154.50547531 374.1603009 155.09688812 373.8343811 155.70622253 C368.82120099 165.07580661 363.77517879 174.42775005 358.73388672 183.78222656 C355.82129735 189.18745437 352.9107577 194.59378568 350 200 C348.83334304 202.16667189 347.66667637 204.33333856 346.5 206.5 C345.63375 208.10875 345.63375 208.10875 344.75 209.75 C343 213 341.25 216.25 339.5 219.5 C338.92185547 220.5737085 338.34371094 221.64741699 337.74804688 222.75366211 C336.58792949 224.90814267 335.42777359 227.0626025 334.26757812 229.21704102 C331.56780719 234.23052172 328.86838533 239.2441891 326.17041016 244.25863647 C325.22438126 246.01687777 324.27820669 247.77504069 323.33203125 249.53320312 C322.15209234 251.72577618 320.97238653 253.9184747 319.79296875 256.11132812 C319.25285156 257.11486328 318.71273438 258.11839844 318.15625 259.15234375 C317.69025391 260.01851318 317.22425781 260.88468262 316.74414062 261.77709961 C314.17490012 266.52465616 311.58492745 271.26096634 309 276 C326.16 275.67 343.32 275.34 361 275 C368.81639335 260.4296357 376.62103977 245.85366199 384.375 231.25 C384.72696442 230.58713989 385.07892883 229.92427979 385.44155884 229.24133301 C387.96174804 224.4945981 390.48098271 219.7473569 393 215 C395.87434691 209.5829865 398.74911092 204.16619495 401.625 198.75 C401.97866638 198.08391724 402.33233276 197.41783447 402.69671631 196.73156738 C408.21876037 186.33353161 413.77029754 175.95166558 419.33642578 165.57714844 C424.44263426 156.05435921 429.51406952 146.51338247 434.57797241 136.9680481 C440.23967235 126.29665413 445.93963508 115.64644277 451.65673828 105.00463867 C456.31356833 96.3203989 460.88988747 87.59606647 465.40942383 78.83959961 C465.86986084 77.95022705 466.33029785 77.06085449 466.8046875 76.14453125 C467.20671387 75.36440674 467.60874023 74.58428223 468.02294922 73.78051758 C469 72 469 72 470 71 C471.44213999 70.90441964 472.88894079 70.87811606 474.33424377 70.87974548 C475.73726242 70.87768349 475.73726242 70.87768349 477.16862488 70.87557983 C478.20296158 70.87917511 479.23729828 70.88277039 480.30297852 70.88647461 C481.38577087 70.88632858 482.46856323 70.88618256 483.58416748 70.8860321 C487.18243374 70.88673177 490.78064897 70.89452667 494.37890625 70.90234375 C496.86612418 70.90420774 499.35334248 70.90563173 501.84056091 70.90663147 C507.73021191 70.9100665 513.6198439 70.91795723 519.50948709 70.92798096 C526.87025374 70.94023754 534.23102264 70.94562209 541.59179688 70.95117188 C554.72787398 70.96191185 567.86393583 70.97879911 581 71 C581.30521576 70.06079208 581.61043152 69.12158417 581.92489624 68.15391541 C582.91259201 65.25641936 584.0569767 62.79790523 585.5390625 60.12890625 C586.03792969 59.22333984 586.53679688 58.31777344 587.05078125 57.38476562 C587.57027344 56.45341797 588.08976563 55.52207031 588.625 54.5625 C589.63887503 52.73094134 590.6518773 50.89889931 591.6640625 49.06640625 C592.40700058 47.72274742 592.40700058 47.72274742 593.16494751 46.35194397 C595.20671054 42.62241835 597.21136213 38.87439499 599.20849609 35.12084961 C599.75826363 34.08875996 599.75826363 34.08875996 600.31913757 33.03582001 C601.21311968 31.35740573 602.106611 29.67873005 603 28 C572.39191934 27.95431694 541.78384651 27.91895082 511.17573987 27.89786934 C507.55734541 27.8953681 503.93895101 27.89277944 500.32055664 27.89013672 C499.6002379 27.8896121 498.87991916 27.88908748 498.13777258 27.88854696 C486.49386372 27.8798583 474.84997472 27.86409684 463.20607761 27.84569441 C451.24709484 27.82695246 439.28812244 27.81587421 427.32912558 27.81182301 C420.61669782 27.80933158 413.90431779 27.8031181 407.19190407 27.78853989 C400.8677691 27.77491685 394.54369743 27.77078691 388.21954918 27.77378464 C385.90453624 27.77323659 383.58952108 27.76928742 381.27452087 27.76158905 C352.52845597 27.67072356 326.78921895 32.37326774 305.63671875 53.2734375 C296.71103425 62.50325643 290.99214619 72.75620049 285 84 C283.84044259 86.15917587 282.68025001 88.31801072 281.51953125 90.4765625 C278.96160648 95.23908524 276.41000344 100.00491673 273.86328125 104.7734375 C268.51599826 114.78463291 263.12731252 124.77351044 257.74267578 134.76464844 C255.97136199 138.05316768 254.20218855 141.34283025 252.43359375 144.6328125 C246.47634793 155.71211525 240.49791464 166.77899477 234.46606445 177.81787109 C229.16518488 187.52049148 223.90307413 197.24400735 218.64111328 206.96777344 C215.92877862 211.97925759 213.21428739 216.98957329 210.5 222 C209.41665618 223.99999432 208.33332285 225.99999432 207.25 228 C205.08333333 232 202.91666667 236 200.75 240 C200.21366943 240.99016113 199.67733887 241.98032227 199.12475586 243.00048828 C198.04227828 244.9988834 196.9597588 246.99725583 195.87719727 248.99560547 C193.15542547 254.0199741 190.43440115 259.04474489 187.71484375 264.0703125 C181.72763013 275.13224996 175.72626565 286.18617844 169.69311523 297.22314453 C169.22204346 298.08536621 168.75097168 298.94758789 168.265625 299.8359375 C167.85086914 300.59438965 167.43611328 301.3528418 167.00878906 302.13427734 C166.31810611 303.41167307 165.64942787 304.70114426 165 306 C161.08325266 304.69441755 160.88876073 303.40325323 159.06640625 299.76953125 C158.50614746 298.66770508 157.94588867 297.56587891 157.36865234 296.43066406 C156.92740021 295.54658875 156.92740021 295.54658875 156.47723389 294.64465332 C154.92502701 291.53568247 153.34103663 288.44291657 151.76171875 285.34765625 C151.44330017 284.72136322 151.12488159 284.09507019 150.79681396 283.44979858 C147.92988135 277.82370657 144.92666047 272.27798705 141.875 266.75 C137.81920236 259.38186689 133.86947534 251.96767295 130 244.5 C126.08751368 236.95003453 122.09431488 229.45293255 118 222 C113.3821712 213.59410852 108.9126912 205.1205838 104.5 196.60546875 C101.08050819 190.02472801 97.57070727 183.49980308 94 177 C89.3821712 168.59410852 84.9126912 160.1205838 80.5 151.60546875 C77.08050819 145.02472801 73.57070727 138.49980308 70 132 C65.3821712 123.59410852 60.9126912 115.1205838 56.5 106.60546875 C53.08050819 100.02472801 49.57070727 93.49980308 46 87 C41.3821712 78.59410852 36.9126912 70.1205838 32.5 61.60546875 C29.08050617 55.02472412 25.57057042 48.49988129 22 42 C14.39118067 28.14322725 7.06963799 14.13927598 0 0 Z " fill="#000000" transform="translate(25,13)"/>
</svg>
